<!--?xml version="1.0" encoding="utf-8"?-->
<svg version="1.1" x="0px" y="0px" id="iconz00107521144107000" viewBox="0 0 512 512" xmlns="http://www.w3.org/2000/svg" style="enable-background:new 0 0 512 512;" xml:space="preserve"><style type="text/css">
.baseF{fill:#F4EAEA}
.baseB{fill:#231815}
.eyeF{fill:#FFFFFF}
.eyeB{fill:#231815}
.eyeT{fill:#BDFFEA}
.hairF{fill:#FFFFFF}
.hairB{fill:#231815}
.hairU{fill:#5EEFB9}
.hairT{fill:#BDFFEA}
.noseF{fill:#F4EAEA}
.noseB{fill:#231815}
.noseU{fill:#5EEFB9}
.mayugeB{fill:#231815}
.mayugeU{fill:#5EEFB9}
.mayugeT{fill:#BDFFEA}
.mayugeF{fill:#FFFFFF}
.mouthF{fill:#FFFFFF}
.mouthB{fill:#231815}
.mouthT{fill:#BDFFEA}
.mouthU{fill:#5EEFB9}
.hatF{fill:#FFFFFF}
.hatB{fill:#231815}
.hatU{fill:#5EEFB9}
.hatT{fill:#BDFFEA}
.higeU{fill:#5EEFB9}
.higeB{fill:#231815}
.higeF{fill:#FFFFFF}
.bodyF{fill:#FFFFFF}
.bodyB{fill:#231815}
.bodyU{fill:#5EEFB9}
.bodyT{fill:#BDFFEA}
.bodyS{fill:#EDF9F9}
.bodyH{fill:#FFFFFF}
.glassF{fill:#F4EAEA}
.glassB{fill:#231815}
.glassT{fill:#BDFFEA}
.glassU{fill:#5EEFB9}
.kirakiraF{fill:#FFFFFF}
.kirakiraB{fill:#231815}
.kirakiraU{fill:#5EEFB9}
.kirakiraT{fill:#BDFFEA}
.kirakiraH{fill:#FFFFFF}
.backF{fill:#FFFFFF}
.backB{fill:#231815}
.backU{fill:#5EEFB9}
.backS{fill:#EDF9F9}
.backA{fill:#FFE38B}
.backG{fill:#EEEEEF}
.backC{fill:#19DB9F}
.backD{fill:#DBBCA1}
</style>
<g class="icosvg">
<g>
	<g>
		<path class="baseF" d="M370.823,211.356h-1.083C365.238,142.075,331.823,86.563,256,86.563s-109.238,55.512-113.74,124.793h-1.083    c-14.838-8.773-36.38,8.079-32.988,28.425c7.12,42.712,9.938,53.302,22.629,59.714c6.476,3.272,12.413,3.389,12.413,3.389h1.277    c4.228,26.864,12.675,46.636,23.503,61.72c16.545,23.044,59.074,47.137,87.989,47.137c28.915,0,71.445-24.094,87.989-47.137    c10.828-15.084,19.275-34.856,23.503-61.72h1.277c0,0,5.937-0.117,12.413-3.389c12.689-6.413,15.509-17.002,22.629-59.714    C407.203,219.435,385.661,202.583,370.823,211.356z" style="fill: rgb(244, 234, 234);"></path>
		<path class="baseB" d="M400.197,213.073c-6.568-6.81-16.304-11.004-25.737-8.755C368.747,134.944,329.975,80.52,256,81.287    c-74.235-0.864-112.896,54.299-118.444,123.035c-19.995-4.34-38.258,16.759-34.57,36.339l-0.001-0.011    c3.584,21.412,6.032,34.84,9.469,44.398c3.786,12.939,15.561,21.371,27.56,22.815c3.49,21.313,12.227,44.344,23.712,59.82    c19.76,25.929,59.709,48.411,92.275,49.338c32.904-0.946,72.797-23.732,92.275-49.337c11.483-15.481,20.216-38.503,23.711-59.821    c20.682-3.122,27.736-17.588,31.679-37.926c1.673-7.721,3.343-17.25,5.35-29.287l0.001-0.009    C410.841,230.515,406.844,219.747,400.197,213.073z M398.606,238.914c-3.537,21.3-6.057,34.522-8.984,42.54    c-2.885,8.629-7.803,13.034-15.94,15.273c0.934-7.446,1.571-15.359,1.868-23.806c0.102-2.913-2.176-5.356-5.089-5.458    c-2.912-0.102-5.355,2.176-5.457,5.089c-0.741,21.097-3.625,38.545-8.037,53.102c-7.684,23.201-15.096,37.185-32.968,51.943    c-17.576,14.384-46.071,28.758-67.999,28.868c-29.641-1.047-66.146-22.057-83.704-44.938c-6.917-9.64-12.849-21.314-17.265-35.874    c-4.412-14.557-7.295-32.005-8.034-53.102c-0.347-6.881-10.641-6.633-10.547,0.37h-0.001c0.296,8.449,0.935,16.366,1.869,23.813    c-14.102-3.734-16.335-14.595-19.67-29.034c-1.611-7.396-3.355-17.378-5.343-29.308l0.087,0.509    c-2.538-12.803,10.263-28.169,23.402-23.817c-0.209,4.296-0.347,8.62-0.348,12.994c0,2.914,2.363,5.277,5.277,5.277    c2.913,0,5.277-2.363,5.277-5.277l0,0c-0.579-71.264,30.158-137.1,109.001-136.238c44.048-0.349,77.728,20.487,94.871,59.825    c9.632,21.733,14.134,48.146,14.128,76.414c0,2.914,2.362,5.277,5.277,5.277c2.913,0,5.277-2.363,5.277-5.277    c0-4.374-0.12-8.706-0.329-13.001C388.325,210.72,401.15,226.151,398.606,238.914z" style="fill: rgb(35, 24, 21);"></path>
	</g>
</g>

<g>
	<path class="hairB" d="M342.974,411.2c-4.342,0.478-7.535-4.076-5.428-7.901c5.423-9.844,13.087-27.487,13.087-48.572
		c0-32.627,0-131.871,0-131.871s-6.204,0-16.4,0c-9.65,0-4.141-36.896-26.745-61.045c-3.536,30.199-22.467,61.045-32.181,61.045
		c-2.481,0-10.539,0-21.278,0c5.058-13.392,11.835-34.369,13.552-54.48c-1.822,6.427-16.874,39.377-27.135,54.48h-27.967
		c8.407-12.638,23.577-40.784,25.039-55.953c-1.434,5.061-17.728,27.78-36.829,44.815c-7.004,6.247-15.101,11.139-24.486,11.141
		c-10.039,0.002-13.175,0.002-15.093-0.003c0,0,0,99.244,0,131.871c0,21.084,6.406,39.534,13.087,48.572
		c6.24,8.442,4.54,12.39-3.473,12.355c0,0-97.162,11.681-97.162-66.082c0-35.386,22.973-33.592,22.973-127.396
		c0-93.806,71.247-163.819,159.338-163.819c88.09,0,159.337,70.012,159.337,163.819c0,93.804,19.768,92.155,22.973,127.396
		C444.193,415.655,342.974,411.2,342.974,411.2z" style="fill: rgb(35, 24, 21);"></path>
</g>


<g>
	<g>
		<path class="mouthB" d="M242.772,355.115h26.456c2.253,0,4.08-1.827,4.08-4.079c0-2.254-1.827-4.08-4.08-4.08h-26.456
			c-2.254,0-4.08,1.827-4.08,4.08C238.692,353.288,240.519,355.115,242.772,355.115" style="fill: rgb(35, 24, 21);"></path>
	</g>
</g>


<g>
	<path class="noseB" d="M248.98,301.597c1.884,0,1.561,3.091,1.842,4.671c0.614,3.436,4.73,2.988,8.142,2.988
		c6.035,0,3.712,4.973,0,4.973c-3.715,0-12.537,1.062-12.537-2.653S245.066,301.597,248.98,301.597z" style="fill: rgb(35, 24, 21);"></path>
</g>


<g>
	<g>
		<path class="eyeB" d="M232.715,269.366c-0.051-0.296-0.096-0.522-0.127-0.687c-0.047-0.246-0.079-0.41-0.154-0.925
			c-0.073-0.507-0.179-1.322-0.339-2.682c-0.323-2.755-1.163-5.283-2.423-7.469c-1.889-3.288-4.695-5.756-7.845-7.342
			c-3.156-1.593-6.662-2.351-10.188-2.353c-4.319,0.004-8.706,1.138-12.575,3.485c-3.863,2.338-7.19,5.954-9.119,10.686
			c-0.931,2.274,0.158,4.873,2.433,5.804c2.274,0.931,4.873-0.158,5.804-2.432v-0.001c1.199-2.91,3.128-4.996,5.504-6.451
			c2.371-1.446,5.208-2.194,7.954-2.19c2.995-0.004,5.811,0.885,7.827,2.423c1.015,0.771,1.849,1.696,2.493,2.812
			c0.469,0.816,0.796,1.793,1.038,2.867c-0.083-0.036-0.158-0.081-0.241-0.117c-2.245-0.947-4.826-1.475-7.644-1.473l-0.286,0.003
			h0.023c-2.953,0.031-5.715,0.672-8.14,1.804c-3.647,1.697-6.493,4.464-8.385,7.688c-1.896,3.229-2.882,6.925-2.885,10.68
			c-0.001,3.364,0.803,6.795,2.523,9.919c1.714,3.123,4.363,5.912,7.852,7.932c3.254,1.889,6.486,2.905,9.642,2.907
			c3.327,0.019,6.412-1.208,8.752-3.099c3.536-2.855,5.662-6.889,7.071-11.19c1.39-4.32,2.022-9.005,2.027-13.472
			c0-1.869-0.113-3.7-0.343-5.455C232.858,270.264,232.783,269.764,232.715,269.366z" style="fill: rgb(35, 24, 21);"></path>
		<path class="eyeB" d="M322.05,271.039c-0.102-0.775-0.177-1.275-0.245-1.672c-0.051-0.296-0.096-0.522-0.128-0.687
			c-0.047-0.246-0.079-0.41-0.154-0.925c-0.073-0.507-0.179-1.322-0.34-2.682c-0.322-2.755-1.162-5.283-2.423-7.469
			c-1.889-3.288-4.695-5.756-7.845-7.342c-3.156-1.593-6.662-2.351-10.188-2.353c-4.319,0.004-8.706,1.138-12.575,3.485
			c-3.863,2.338-7.19,5.954-9.118,10.686c-0.932,2.274,0.158,4.873,2.432,5.804c2.275,0.931,4.873-0.158,5.804-2.432v-0.001
			c1.199-2.91,3.128-4.996,5.505-6.451c2.371-1.446,5.207-2.194,7.953-2.19c2.995-0.004,5.811,0.885,7.827,2.423
			c1.015,0.771,1.849,1.696,2.493,2.812c0.468,0.816,0.795,1.793,1.038,2.867c-0.083-0.036-0.158-0.081-0.241-0.117
			c-2.245-0.947-4.826-1.475-7.644-1.473l-0.286,0.003h0.023c-2.953,0.031-5.715,0.672-8.14,1.804
			c-3.647,1.697-6.493,4.464-8.385,7.688c-1.896,3.229-2.882,6.925-2.885,10.68c0,3.364,0.803,6.795,2.523,9.919
			c1.714,3.123,4.363,5.912,7.852,7.932c3.254,1.889,6.486,2.905,9.642,2.907c3.327,0.019,6.412-1.208,8.752-3.099
			c3.536-2.855,5.662-6.889,7.071-11.19c1.39-4.32,2.022-9.005,2.026-13.472C322.393,274.625,322.28,272.794,322.05,271.039z" style="fill: rgb(35, 24, 21);"></path>
	</g>
</g>


<g>
	<g>
		<path class="mayugeB" d="M198.684,230.086c8.825-5.228,16.216-5.586,22.035-4.786c5.819,0.8,6.996,7.481,4.483,7.466
			c-4.743-0.028-15.295,0.068-23.248,2.143C195.821,236.509,195.379,232.044,198.684,230.086z" style="fill: rgb(35, 24, 21);"></path>
		<path class="mayugeB" d="M313.317,230.086c-8.825-5.228-16.216-5.586-22.035-4.786c-5.819,0.8-6.996,7.481-4.483,7.466
			c4.743-0.028,15.295,0.068,23.248,2.143C316.18,236.509,316.622,232.044,313.317,230.086z" style="fill: rgb(35, 24, 21);"></path>
	</g>
</g>

</g></svg>